<svg width="300" height="235" viewBox="0 0 300 235" fill="none" xmlns="http://www.w3.org/2000/svg">
<path d="M274.819 135.316H156.419C142.514 135.316 131.238 127.657 131.238 118.206C131.238 108.756 142.514 101.096 156.419 101.096H183.695C184.19 100.944 184.686 100.715 185.181 100.525C196.381 98.772 204.762 91.9891 204.762 83.8343C204.762 74.3839 193.486 66.7245 179.581 66.7245H61.181C47.2762 66.7245 36 59.0651 36 49.6147C36 40.1643 47.2762 32.5049 61.181 32.5049H88.4571C96.8762 29.7232 102.705 23.8929 102.705 17.1099C102.705 7.65953 91.4286 0.000141574 77.5238 0.000141574H-74.819C-88.7238 -0.0379648 -100 7.62142 -100 17.0718C-100 23.8548 -94.1333 29.7232 -85.7143 32.4668H-32C-18.0952 32.4668 -6.81905 40.1262 -6.81905 49.5766C-6.81905 59.027 -18.0952 66.6864 -32 66.6864H-48.381C-62.2857 66.6864 -73.5619 74.3458 -73.5619 83.7962C-73.5619 93.2466 -62.2857 100.906 -48.381 100.906H9.18095C9.18095 100.906 9.40952 100.982 9.52381 101.02H63.2381C77.1429 101.02 88.419 108.68 88.419 118.13C88.419 125.294 81.9048 131.429 72.7238 133.982H-58.1714C-72.0762 133.982 -83.3524 141.642 -83.3524 151.092C-83.3524 157.875 -77.4857 163.743 -69.0667 166.487H-15.3524C-1.44762 166.487 9.82857 174.146 9.82857 183.597C9.82857 193.047 -1.44762 200.707 -15.3524 200.707H-31.7333C-45.6381 200.707 -56.9143 208.366 -56.9143 217.816C-56.9143 227.267 -45.6381 234.926 -31.7333 234.926H196.229C210.133 234.926 221.41 227.267 221.41 217.816C221.41 208.366 210.133 200.707 196.229 200.707H77.8286C63.9238 200.707 52.6476 193.047 52.6476 183.597C52.6476 177.728 56.9905 172.546 63.6571 169.459H274.819C288.724 169.459 300 161.8 300 152.35C300 142.899 288.724 135.24 274.819 135.24V135.316Z" fill="url(#paint0_linear_36_478)" fill-opacity="0.5"/>
<defs>
<linearGradient id="paint0_linear_36_478" x1="-100" y1="117.482" x2="300" y2="117.482" gradientUnits="userSpaceOnUse">
<stop stop-color="#A0A040"/>
<stop offset="1" stop-color="white"/>
</linearGradient>
</defs>
</svg>
