<?xml version="1.0" encoding="UTF-8"?><svg id="_レイヤー_2" xmlns="http://www.w3.org/2000/svg" xmlns:xlink="http://www.w3.org/1999/xlink" viewBox="0 0 341.88 265"><defs><style>.cls-1{clip-path:url(#clippath);}.cls-2,.cls-3{fill:url(#_空);}.cls-3,.cls-4,.cls-5{stroke-width:0px;}.cls-4{fill:#ff8080;}.cls-5{fill:#fff;}</style><linearGradient id="_空" x1="170.94" y1="265" x2="170.94" y2="64.7" gradientUnits="userSpaceOnUse"><stop offset="0" stop-color="#cce0f4"/><stop offset=".06" stop-color="#c2dcf2"/><stop offset=".17" stop-color="#a9d2ee"/><stop offset=".31" stop-color="#7fc2e7"/><stop offset=".46" stop-color="#46abdd"/><stop offset=".57" stop-color="#1e9cd7"/><stop offset=".87" stop-color="#0075be"/><stop offset=".99" stop-color="#005b97"/></linearGradient><clipPath id="clippath"><path class="cls-3" d="m341.88,265H0c58.15-53.26,99.12-113.2,122.92-179.81,2.38-6.66,4.59-13.39,6.62-20.19,6.9-2.83,13.8,15.61,20.7,7.56,6.9-2.45,13.8,11.08,20.7,2.52,6.9,6.24,13.8-2.34,20.7-2.52,6.9-6.6,13.8,2.59,20.7-7.56,1.23,7.22,2.7,14.33,4.42,21.34,17.19,70.08,58.9,129.63,125.12,178.66Z"/></clipPath></defs><g id="_レイヤー_1-2"><circle class="cls-4" cx="218.94" cy="65" r="65"/><path class="cls-2" d="m341.88,265H0c58.15-53.26,99.12-113.2,122.92-179.81,2.38-6.66,4.59-13.39,6.62-20.19,6.9-2.83,13.8,15.61,20.7,7.56,6.9-2.45,13.8,11.08,20.7,2.52,6.9,6.24,13.8-2.34,20.7-2.52,6.9-6.6,13.8,2.59,20.7-7.56,1.23,7.22,2.7,14.33,4.42,21.34,17.19,70.08,58.9,129.63,125.12,178.66Z"/><g class="cls-1"><polygon class="cls-5" points="258.25 27 269.72 30.63 266.66 34.06 266.75 37.63 273.95 42.24 267.92 45.04 258.57 46.73 257.17 49.79 259.38 53.86 261.49 58.14 267.99 64.32 259.58 64.96 266.48 72.01 259.52 72.85 264.46 79.72 251.65 76.67 244.56 76.23 250.88 84.59 243.94 83.89 247.89 91.43 242.06 91.22 242.53 96.45 241.36 100.42 235.32 99.38 230.43 99.13 236.89 112.56 225.31 103.66 226.49 111.34 218.98 106.44 221.77 117.73 220.01 122.35 211.56 114.16 207.4 113.41 206.76 120.72 202.5 119.67 198.25 118.07 198.16 129.92 193.05 125.38 187.48 116.79 186.07 127.49 183.48 135.11 178.44 124.63 175.51 132.96 171.26 119.85 167.94 135.63 164.58 120.99 160.43 132.11 158.18 117.66 152.67 133.22 149.61 128.58 146.86 123.89 140.89 132.98 140.93 118.97 137.01 119.91 129.93 128.9 131.43 115.14 127.58 115.37 124.88 113.02 120.88 113.19 116.38 113.9 110.33 116.63 113.12 105.96 104.81 111.32 103 107.57 97.9 107.82 105.03 94.57 100.44 94.49 94.33 95.52 87.18 96.98 89.92 89.86 95.19 81.45 93.54 78.64 84.16 80.84 78.7 79.94 80.78 74.59 81.25 70.39 84.5 65.1 82.43 62.41 79.47 60 64.78 61.33 72.96 54.89 67.9 52.53 78.46 46.47 72.15 44.29 71.32 40.9 76.85 36.81 76.37 33.56 67.84 30.58 58.58 27 77.45 23.76 70.78 20.05 76.71 17.18 60.82 11.6 70 9.32 78.18 7.46 77.69 3.96 65.26 -3.15 71.75 -5.02 67.12 -10.61 75.64 -11.24 84.16 -11.26 85.66 -14.18 84.86 -18.36 82.06 -23.96 80.32 -29.32 87.07 -29.15 93.4 -28.8 89.67 -36.08 97.54 -34.01 101.26 -35.08 95.31 -45.64 101.56 -44.31 98.63 -52.99 101.66 -55.25 112.43 -47.17 108.87 -58.08 117.35 -51.74 116.78 -59.23 117.84 -64.76 127.23 -54.35 126.82 -63.05 128.12 -69.14 135.73 -59.36 134.94 -72.16 137.19 -77.75 142.77 -71.61 148.7 -61.37 150.32 -70.66 154.56 -66 158.2 -63.43 161 -70.02 164.33 -74.16 167.94 -70.14 171.4 -69.86 175.16 -73.96 178.95 -75.38 182.01 -70.8 185.9 -72.54 188.78 -68.77 191.13 -63.81 195.22 -65.89 202.28 -76.16 206.1 -75.3 204.51 -61.27 211.93 -69.31 208.53 -54.1 218.74 -66.01 221.91 -63.94 223.13 -58.87 228.77 -60.59 222.77 -46.25 228.22 -47.8 227.47 -41.7 238.32 -48.59 241.67 -46.73 248.09 -47.62 248.95 -43.19 241.58 -32.33 245.16 -30.8 254.41 -33.04 256.1 -29.65 253.22 -23.59 264.2 -25.57 250.69 -14.41 262.94 -16.38 260.92 -11.51 263.3 -8.57 266.22 -5.71 261.54 -.48 270.92 .72 272.86 4.18 273.29 8 261.47 13.54 277.15 15.27 273.32 19.47 259.67 23.72 258.25 27"/></g></g></svg>