<svg width="345" height="235" viewBox="0 0 345 235" fill="none" xmlns="http://www.w3.org/2000/svg">
<path d="M25.181 135.316H143.581C157.486 135.316 168.762 127.657 168.762 118.206C168.762 108.756 157.486 101.096 143.581 101.096H116.305C115.81 100.944 115.314 100.715 114.819 100.525C103.619 98.772 95.2381 91.9891 95.2381 83.8343C95.2381 74.3839 106.514 66.7245 120.419 66.7245H238.819C252.724 66.7245 264 59.0651 264 49.6147C264 40.1643 252.724 32.5049 238.819 32.5049H211.543C203.124 29.7232 197.295 23.8929 197.295 17.1099C197.295 7.65953 208.571 0.000141574 222.476 0.000141574H374.819C388.724 -0.0379648 400 7.62142 400 17.0718C400 23.8548 394.133 29.7232 385.714 32.4668H332C318.095 32.4668 306.819 40.1262 306.819 49.5766C306.819 59.027 318.095 66.6864 332 66.6864H348.381C362.286 66.6864 373.562 74.3458 373.562 83.7962C373.562 93.2466 362.286 100.906 348.381 100.906H290.819C290.819 100.906 290.59 100.982 290.476 101.02H236.762C222.857 101.02 211.581 108.68 211.581 118.13C211.581 125.294 218.095 131.429 227.276 133.982H358.171C372.076 133.982 383.352 141.642 383.352 151.092C383.352 157.875 377.486 163.743 369.067 166.487H315.352C301.448 166.487 290.171 174.146 290.171 183.597C290.171 193.047 301.448 200.707 315.352 200.707H331.733C345.638 200.707 356.914 208.366 356.914 217.816C356.914 227.267 345.638 234.926 331.733 234.926H103.771C89.8667 234.926 78.5905 227.267 78.5905 217.816C78.5905 208.366 89.8667 200.707 103.771 200.707H222.171C236.076 200.707 247.352 193.047 247.352 183.597C247.352 177.728 243.01 172.546 236.343 169.459H25.181C11.2762 169.459 -1.19209e-06 161.8 -1.19209e-06 152.35C-1.19209e-06 142.899 11.2762 135.24 25.181 135.24V135.316Z" fill="url(#paint0_linear_36_480)" fill-opacity="0.5"/>
<defs>
<linearGradient id="paint0_linear_36_480" x1="400" y1="117.482" x2="0" y2="117.482" gradientUnits="userSpaceOnUse">
<stop stop-color="#A0A040"/>
<stop offset="1" stop-color="white"/>
</linearGradient>
</defs>
</svg>
