<svg width="588" height="458" viewBox="0 0 588 458" fill="none" xmlns="http://www.w3.org/2000/svg">
<path d="M759 128C759 72.77 714.23 28 659 28C644.81 28 631.31 30.96 619.08 36.29C600.74 14.13 573.02 0 542 0C515.13 0 490.74 10.6 472.77 27.84C457.89 19.05 440.53 14 422 14C395.51 14 371.43 24.3 353.54 41.12C338.94 32.77 322.03 28 304 28C257.93 28 219.15 59.15 207.55 101.54C201.85 100.53 195.99 100 190 100C134.77 100 90 144.77 90 200C90 209.79 91.41 219.24 94.03 228.18C41.58 231.27 0 274.78 0 328C0 381.22 44.77 428 100 428C115.17 428 129.55 424.62 142.43 418.57C160.7 442.53 189.54 458 222 458C257.22 458 288.18 439.79 306 412.27C323.82 439.79 354.78 458 390 458C432.02 458 467.99 432.08 482.79 395.35C492.32 398.37 502.47 400 513 400C558.8 400 597.41 369.21 609.26 327.2C613.43 327.73 617.69 328 622 328C677.23 328 722 283.23 722 228C722 220.92 721.26 214.01 719.86 207.35C743.66 189.07 759 160.33 759 128Z" fill="#FFD058"/>
</svg>
