<?xml version="1.0" encoding="UTF-8"?><svg id="_レイヤー_2" xmlns="http://www.w3.org/2000/svg" viewBox="0 0 46.36 82.04"><defs><style>.cls-1{fill:#fff;stroke-width:0px;}</style></defs><g id="_レイヤー_1-2"><path class="cls-1" d="m3.69,35.75c.34.05.62-.05.91-.24l2.78-2.02.29-3.31c.1-.29.05-.58-.14-.86l-2.16-3.02c-.43-.77-.67-1.58-.67-2.35.05-1.15.58-2.3,1.63-3.55,1.82,2.21,3.6,4.03,5.33,5.52.48.34.62.82.53,1.44,0,.53,0,1.1-.14,1.87-.24.77-.34,1.39-.38,1.92l1.73-1.2-.1-8.69c.1-.53,0-.96-.24-1.34-.62-1.2-1.06-2.35-1.34-3.55-.1-.24-.05-.62.1-1.06l.24-.43c.1-.43.34-.58.77-.43,2.4.53,4.56,1.58,6.53,3.02.29.14.38.43.29.82l-.34,2.5,1.25-.53c.43-.14.77-.1,1.1.05l1.2,1.15c.05-1.44.24-2.83.53-4.18,0-.1,0-.14-.05-.19-.05-.05-.1-.05-.14-.05l-2.06-1.1c.77,0,1.1.1,1.1.34,1.01-1.34,1.97-2.4,3.07-3.31.77-.62,1.44-.67,2.11-.14.91.62,1.68,1.39,2.3,2.3.19.29.24.58.1.91l-.48,2.06c1.54-1.2,2.88-2.78,3.89-4.75,1.44.05,2.78.53,3.94,1.3,1.06.77,1.44,1.73,1.2,3.02-.1.53-.29.86-.72,1.1l-6.72,3.6-2.5-.1c-.38,1.54-.62,3.22-.72,4.94,0,.62.29,1.06.82,1.3.91.48,1.82.67,2.83.53,2.4-.14,4.7-.82,6.86-2.21.62-.29.91-.72.96-1.34.34-1.68.58-3.79.72-6.38,2.21,2.88,3.98,5.86,5.42,9.02.43.86.38,1.73-.05,2.59l-.38.86c-.48.86-1.15,1.44-2.11,1.73-3.46,1.06-6.91,1.44-10.46,1.15-1.06-.05-2.06-.24-2.93-.58-1.82-.72-3.41-1.63-4.85-2.78-1.06-.86-1.68-1.97-1.73-3.12-1.25,1.44-2.78,2.78-4.61,3.98-4.61,3.46-8.93,7.1-12.91,10.94-.24.14-.48.24-.72.24s-.43-.1-.67-.34c-1.34-1.73-2.35-3.65-3.07-5.66-.14-.34-.1-.67.1-.96l.34-.43c.29-.29.58-.34.86-.19l1.58.19Zm16.42.38c0-.24-.1-.48-.24-.62l-1.25-1.78c-.24-.38-.19-.72.14-1.01l2.21-1.2c.43-.24.82-.29,1.15-.1,1.54.34,2.93.91,4.18,1.92.43.24.62.67.58,1.15l-.05,2.11,4.32-1.39c.34-.14.67-.1,1.06.14,1.39.91,2.69,1.97,3.89,3.17.29.43.29.82,0,1.2l-.48.86c-2.98,1.06-5.86,1.78-8.64,2.26v2.5c3.17.96,6.38,1.58,9.74,1.87.34,0,.67.1,1.01.29,2.02,1.63,3.5,3.5,4.46,5.71.14.38.05.72-.19,1.01-.91.86-1.97,1.54-3.36,1.92-.43.1-.86,0-1.2-.24-3.31-2.02-6.77-3.79-10.37-5.33l.05,2.11c0,.72-.24,1.39-.67,1.97-.96,1.2-2.06,2.11-3.31,2.74-.62.34-1.15.29-1.73-.19-1.25-.86-2.5-1.97-3.65-3.36-.96-1.15-1.92-2.06-2.98-2.83-2.83,2.06-6.14,3.46-9.79,4.22-.53.19-.82.05-.82-.48-.19-.67-.14-1.34.14-2.02.24-.29.43-.43.67-.43.43,0,.72,0,.91.14,3.17-2.35,6-5.09,8.45-8.16-1.15,0-2.4-.24-3.79-.58-.58-.14-.86-.53-.86-1.15,0-.58.1-1.06.29-1.44.19-.34.43-.58.86-.72,3.31-.38,6.38-.96,9.26-1.73v-2.54Zm-3.74,13.59l2.93,1.78s.1.05.14.05c.05-.05.05-.1.05-.14l.14-4.8c-.82,1.01-1.87,2.02-3.26,3.12Zm1.82-22.03l4.56-2.26.05-1.1-4.42,1.49-.19,1.87Z"/><path class="cls-1" d="m22.44,0c-.8,0-1.45.65-1.45,1.45,0,.74.55,1.35,1.28,1.44,0,0,.03.06.03.15v2.98c0,.55-.05.68-.17.74-.66.15-1.14.73-1.14,1.41,0,.8.65,1.45,1.45,1.45.31,0,.61-.1.85-.28.25.18.54.28.85.28.8,0,1.45-.65,1.45-1.45,0-.65-.45-1.23-1.08-1.4-.03-.03-.12-.18-.12-.7,0-.15,0-.42,0-.76,0-.5-.02-1.11-.02-1.63s0-.7.02-.82c.68-.12,1.2-.71,1.2-1.43C25.6.65,24.95,0,24.15,0c-.31,0-.61.1-.85.28C23.05.1,22.75,0,22.44,0Zm1.78.41c.53.03.96.47.98,1,.03.6-.45,1.1-1.05,1.1-.02,0-.03,0-.05,0-.05.07-.08.15-.09.26-.02.15-.03.51-.03.94,0,.86.03,2,.03,2.38s.04.94.37,1.07c.48.11.84.54.82,1.06-.02.55-.47,1-1.02,1.01-.36.01-.68-.16-.88-.44-.19.26-.5.44-.85.44-.58,0-1.05-.47-1.05-1.05,0-.52.37-.94.86-1.03.4-.18.44-.56.44-1.12v-2.97c0-.15-.04-.47-.35-.54-.53-.05-.95-.5-.95-1.04s.47-1.05,1.05-1.05c.35,0,.66.17.85.44.2-.28.54-.46.92-.43Z"/><path class="cls-1" d="m2.61,8.96c-1.37,0-2.35-.89-2.61-1.69l1.14-1.08c.14.6.59,1.22,1.38,1.3.47.04.95-.08,1-.68.11-1.37-2.49-1.13-2.99-2.91C.18,2.59.98,1.42,2.54,1.29c1.45-.12,2.66.89,2.69,2.17l-1.5.23c.05-.48-.3-1.07-.88-1.08-.49-.01-.85.2-.86.62-.02.4.2.55.58.82,2.07,1.1,2.73,1.6,2.69,2.85-.04.85-.71,2.06-2.64,2.05Z"/><path class="cls-1" d="m14.83,1.66l1.66.05s-.05,6.22-.05,6.85l-1.26.08s-.22-1.63-.26-2.84c0,0-2.09.11-2.69.18l-.29,2.93s-1.22.08-1.69.08c0,0,.01-6.27,0-7.58l1.8-.02.16,2.87,2.93-.13s-.2-1.52-.3-2.46Z"/><path class="cls-1" d="m34.02,3.04c.06,1.02-.42,1.63-1.02,1.87.95.49,1.28,1.43,1.13,2.23-.37,1.87-3.19,2.29-4.93,1.42,0,0-.01-6.04,0-7.1,1.97-.49,4.5-.53,4.82,1.58Zm-1.49,3.5c-.01-.72-.42-1.25-1.48-1.8.52-.16,1.28-.58,1.27-1.19-.01-.73-.78-1.03-1.85-.73-.05,1.97-.02,2.73,0,3.65.01.46.26.97,1.13.97.61,0,.94-.58.92-.9Z"/><path class="cls-1" d="m42.19,1.05c1.37,2.24,3.43,6.13,4.17,7.71,0,0-1.69.16-2.25.16,0,0-.37-1.13-.67-1.86,0,0-1.02.01-2.46.04l-.72,1.73s-1.07-.18-1.83-.32c2.37-5.12,2.47-5.11,3.77-7.45Zm.73,4.26c-.34-.76-.83-1.71-.83-1.71l-.74,1.76c.78.02,1.57-.05,1.57-.05Z"/><path class="cls-1" d="m19.67,62.35s1.33.05,1.87.05c0,0,.07,6.61.01,7.3,0,0-.95.07-1.96.07,0,0-2.65-3.9-3.03-4.53l.06,4.46s-1.09.06-1.82.02c0,0,.04-4.79,0-7.12l1.62-.12s3.05,4.75,3.27,5.34l-.02-5.47Z"/><path class="cls-1" d="m32.41,65.96c.11,2.07-.88,3.66-2.57,4.02-1.73.37-3.81-.77-3.93-3.43-.16-3.5,1.9-4.22,3.23-4.22,1.34.04,3.11.53,3.27,3.63Zm-1.71.11c-.04-1.19-.37-2.23-1.68-2.23-1.18.13-1.51,1.14-1.48,2.47.04,1.1.48,2.09,1.51,2.22.77.08,1.71-.48,1.64-2.46Z"/><path class="cls-1" d="m6.2,79.04s-2.25-3-2.88-4.08l1.42-.68,2.09,3.72c1.37-2.07,1.63-2.42,2.43-3.69l1.79,1.01s-2.87,3.39-3.09,3.79l.08,2.64h-1.94l.11-2.7Z"/><path class="cls-1" d="m18.11,74c1.37,2.24,3.43,6.13,4.17,7.71,0,0-1.69.16-2.25.16,0,0-.37-1.13-.67-1.86,0,0-1.02.01-2.46.04l-.72,1.73s-1.07-.18-1.83-.32c2.37-5.12,2.47-5.11,3.77-7.45Zm.73,4.26c-.34-.75-.83-1.71-.83-1.71l-.74,1.76c.78.02,1.57-.05,1.57-.05Z"/><path class="cls-1" d="m26.28,74.52c3.01-.79,5.61.55,5.61,3.5,0,2.63-2.24,4.01-5.37,3.81l-.24-7.32Zm1.46,1.73s0,2.79.02,3.75c.79.01,2.34-.32,2.36-1.98.02-1.56-1.48-2.09-2.39-1.77Z"/><path class="cls-1" d="m43.03,77.96c.11,2.07-.88,3.66-2.57,4.02-1.73.37-3.81-.77-3.93-3.43-.16-3.5,1.9-4.22,3.23-4.22,1.34.04,3.11.53,3.27,3.63Zm-1.71.11c-.04-1.19-.37-2.23-1.68-2.23-1.18.13-1.51,1.14-1.48,2.47.04,1.1.48,2.09,1.51,2.22.77.08,1.71-.48,1.64-2.46Z"/><path class="cls-1" d="m38.04,65.68c.32.12.7-.13.85-.54.15-.42.02-.85-.3-.96-.32-.12-.7.13-.85.54-.15.42-.02.85.3.96Z"/><path class="cls-1" d="m36.84,66.34c.33-.03.57-.4.53-.84-.04-.43-.34-.76-.67-.74-.33.03-.57.4-.53.84.04.43.34.76.67.74Z"/><path class="cls-1" d="m39.42,66.33c.29.17.71,0,.93-.38.22-.38.17-.83-.12-1-.29-.17-.71,0-.93.38-.22.38-.17.83.12,1Z"/><path class="cls-1" d="m40.97,66.78c-.19-.27-.63-.29-.99-.05-.36.25-.5.67-.31.94.19.27.63.29.99.05.36-.25.5-.67.31-.94Z"/><path class="cls-1" d="m39.04,66.83c-.04-.25-.19-.47-.43-.59-.24-.11-.51-.09-.73.04-.24.14-.39.33-.59.41-.2.08-.78-.16-1.13.48-.25.46-.02,1.03.45,1.26.36.17.64.15.85.25.21.1.37.33.73.5.47.22,1.06.03,1.26-.45.27-.69-.28-.97-.35-1.18-.07-.21-.02-.45-.06-.72Z"/><path class="cls-1" d="m9.36,64.72c-.15-.42-.53-.66-.85-.54-.32.12-.45.55-.3.96.15.42.53.66.85.54.32-.12.45-.55.3-.96Z"/><path class="cls-1" d="m10.93,65.61c.04-.43-.2-.81-.53-.84-.33-.03-.63.3-.67.74-.04.43.2.81.53.84.33.03.63-.3.67-.74Z"/><path class="cls-1" d="m7.81,65.33c-.22-.38-.64-.55-.93-.38-.29.17-.34.62-.12,1,.22.38.64.55.93.38.29-.17.34-.62.12-1Z"/><path class="cls-1" d="m6.45,67.72c.36.25.8.23.99-.05.19-.27.05-.7-.31-.94-.36-.25-.8-.23-.99.05-.19.27-.05.7.31.94Z"/><path class="cls-1" d="m8.01,67.55c-.07.21-.62.5-.35,1.18.19.48.78.67,1.26.45.36-.17.52-.4.73-.5.21-.1.49-.08.85-.25.47-.22.7-.8.45-1.26-.36-.65-.93-.4-1.13-.48-.2-.08-.36-.27-.59-.41-.21-.13-.49-.16-.73-.04-.24.11-.4.34-.43.59-.04.27,0,.51-.06.72Z"/></g></svg>